<?xml version="1.0" encoding="UTF-8" standalone="no"?>
<svg
   xmlns:dc="http://purl.org/dc/elements/1.1/"
   xmlns:cc="http://creativecommons.org/ns#"
   xmlns:rdf="http://www.w3.org/1999/02/22-rdf-syntax-ns#"
   xmlns:svg="http://www.w3.org/2000/svg"
   xmlns="http://www.w3.org/2000/svg"
   xmlns:xlink="http://www.w3.org/1999/xlink"
   xmlns:sodipodi="http://sodipodi.sourceforge.net/DTD/sodipodi-0.dtd"
   xmlns:inkscape="http://www.inkscape.org/namespaces/inkscape"
   viewBox="0 0 4096 4096"
   version="1.1"
   class="injected-svg js-svg-inject"
   id="svg15"
   sodipodi:docname="formula-1-logo.svg"
   inkscape:version="0.92.2 (5c3e80d, 2017-08-06)"
   width="4096"
   height="4096"
   inkscape:export-filename="C:\Users\suitedoalex\sites\formula-1-logo-0.png"
   inkscape:export-xdpi="96"
   inkscape:export-ydpi="96">
  <metadata
     id="metadata19">
    <rdf:RDF>
      <cc:Work
         rdf:about="">
        <dc:format>image/svg+xml</dc:format>
        <dc:type
           rdf:resource="http://purl.org/dc/dcmitype/StillImage" />
        <dc:title>Logos / F1-logo red</dc:title>
      </cc:Work>
    </rdf:RDF>
  </metadata>
  <sodipodi:namedview
     pagecolor="#ffffff"
     bordercolor="#666666"
     borderopacity="1"
     objecttolerance="10"
     gridtolerance="10"
     guidetolerance="10"
     inkscape:pageopacity="0"
     inkscape:pageshadow="2"
     inkscape:window-width="1600"
     inkscape:window-height="837"
     id="namedview17"
     showgrid="false"
     inkscape:zoom="0.082552083"
     inkscape:cx="-898.19397"
     inkscape:cy="2452.594"
     inkscape:window-x="-8"
     inkscape:window-y="-8"
     inkscape:window-maximized="1"
     inkscape:current-layer="svg15" />
  <!-- Generator: Sketch 49.1 (51147) - http://www.bohemiancoding.com/sketch -->
  <title
     id="title2">Logos / F1-logo red</title>
  <desc
     id="desc4">Created with Sketch.</desc>
  <defs
     id="defs7">
    <path
       d="m 101.08681,30 h 0.625 v -2.893125 h 0.0106 L 102.76181,30 h 0.54063 l 1.03937,-2.893125 h 0.0106 V 30 h 0.625 v -3.74875 h -0.91375 l -1.00813,2.935 h -0.0106 l -1.03375,-2.935 h -0.92438 z m -3.459373,-3.181875 h 1.18625 V 30 h 0.65625 v -3.181875 h 1.191873 V 26.25125 H 97.627437 Z M 89.999938,30 119.99994,0 H 101.94369 L 71.944312,30 Z M 85.698688,13.065 H 49.381813 c -11.068126,0 -13.005001,0.586875 -17.745626,5.3275 C 27.202437,22.82625 20.000562,30 20.000562,30 h 15.731876 l 3.753124,-3.753125 c 2.467501,-2.4675 3.740001,-2.723125 8.92125,-2.723125 h 26.83375 z M 31.151812,16.253125 C 27.877437,19.3425 20.753062,26.263125 16.913062,30 H -6.25e-5 c 0,0 13.5525005,-13.513125 21.0849995,-20.9275 C 28.845562,1.685 32.714312,0 46.948687,0 H 98.764313 L 87.544938,11.21875 H 48.001187 c -10.001874,0 -12.249375,0.693125 -16.849375,5.034375 z"
       id="path-1"
       inkscape:connector-curvature="0" />
  </defs>
  <g
     id="Logos-/-F1-logo-red"
     inkscape:export-filename="C:\Users\suitedoalex\sites\formula-1-logo-7.png"
     inkscape:export-xdpi="40"
     inkscape:export-ydpi="40"
     style="fill:none;fill-rule:evenodd;stroke:none;stroke-width:1"
     transform="matrix(50.823144,0,0,50.823144,4899.5171,215.77007)">
    <g
       id="Page-1">
      <mask
         id="mask-2"
         fill="white">
        <use
           xlink:href="#path-1"
           id="use9"
           x="0"
           y="0"
           width="100%"
           height="100%" />
      </mask>
      <use
         id="Fill-1"
         xlink:href="#path-1"
         style="fill:#ee0000"
         x="0"
         y="0"
         width="100%"
         height="100%" />
    </g>
  </g>
  <path
     inkscape:connector-curvature="0"
     class="st0"
     d="m 622.6924,2356.0743 h 305.8473 v 53.4491 H 685.0496 v 117.2909 h 243.4901 v 53.449 H 685.0496 v 176.6787 h -62.3572 z m 675.5364,267.2452 c 0,90.5664 -48.9949,141.0461 -145.5001,141.0461 h -40.0868 c -99.4746,0 -145.5002,-51.9644 -145.5002,-141.0461 v -51.9644 c 0,-89.0817 44.5409,-141.0461 145.5002,-141.0461 h 40.0868 c 95.0205,0 145.5001,51.9644 145.5001,141.0461 z m -136.592,-142.5307 h -54.9337 c -54.9337,0 -75.7195,25.2398 -75.7195,83.1429 v 68.2959 c 0,57.9031 20.7858,83.143 75.7195,83.143 h 56.4184 c 57.9031,0 75.7195,-25.2399 75.7195,-83.143 v -68.2959 c -1.4847,-59.3878 -19.301,-84.6276 -77.2042,-83.1429 z m 293.9697,-44.5409 h 87.5971 v 50.4797 h -90.5665 c -34.148,0 -47.5102,10.3928 -47.5102,43.056 v 227.1584 h -59.3878 v -221.2196 c 1.4847,-65.3266 47.5102,-99.4746 109.8674,-99.4745 z m 141.0461,0 h 371.1738 c 80.1736,0 115.8063,44.5409 115.8063,108.3828 v 212.3114 h -59.3878 v -215.2808 c 0,-40.0868 -14.847,-51.9644 -53.4491,-51.9644 h -100.9593 v 267.2452 h -59.3878 v -267.2452 h -154.4083 v 267.2452 h -59.3878 z m 843.307,320.6942 h -181.1329 c -80.1735,0 -115.8062,-40.0868 -115.8062,-114.3215 v -206.3727 h 59.3878 v 212.3115 c 0,41.5713 14.847,54.9337 53.449,54.9337 h 126.1992 v -267.2452 h 59.3878 z m 123.2297,-400.8678 v 400.8677 h -59.3878 v -400.8677 z m 356.3269,400.8677 h -206.3727 c -60.8725,0 -97.9899,-23.7551 -97.9899,-77.2041 0,-34.148 26.7246,-59.3879 71.2654,-92.0512 l 142.5308,-102.4439 H 2632.97 v -50.4797 h 164.8012 c 81.6582,0 121.745,44.5409 121.745,115.8064 z m -59.3878,-53.449 v -175.1941 l -151.439,109.8675 c -20.7857,14.8469 -32.6633,22.2704 -32.6633,40.0868 0,17.8163 14.847,25.2398 34.148,25.2398 z m 188.5563,0 h 121.745 v -276.1534 c 0,-11.8775 -5.9388,-17.8163 -16.3316,-17.8163 h -93.5358 v -53.449 h 102.4439 c 47.5103,0 68.296,23.7551 68.296,71.2653 v 277.6381 h 108.3828 v 53.449 h -289.5156 z m 319.2095,0 h 43.0562 v 7.4235 h -16.3317 v 44.5408 h -10.3928 v -44.5408 h -16.3317 z m 48.995,0 h 13.3622 l 14.847,41.5715 v 0 l 14.8469,-41.5715 h 13.3623 v 53.449 h -8.9082 v -41.5714 0 l -14.8469,41.5714 h -7.4235 l -14.847,-41.5714 v 0 41.5714 h -8.9082 z"
     id="path6"
     style="stroke-width:14.84695435"
     inkscape:export-filename="C:\Users\suitedoalex\sites\formula-1-logo-5.png"
     inkscape:export-xdpi="23.573858"
     inkscape:export-ydpi="23.573858" />
  <path
     inkscape:connector-curvature="0"
     class="st0"
     d="m 1341.285,1736.9564 -314.7554,307.3319 H 622.6924 l 501.827,-497.3729 c 185.587,-185.587 276.1534,-215.2809 593.8782,-215.2809 h 1256.0523 l -273.1839,267.2452 h -947.2357 c -237.5513,0 -288.0309,17.8164 -412.7453,138.0767 z m 1319.8942,-96.5053 h -901.2101 c -239.036,0 -276.1534,17.8163 -384.5361,126.1992 l -276.1534,277.6379 h 374.1433 l 89.0817,-89.0817 c 59.3878,-59.3877 84.6276,-63.8418 203.4033,-63.8418 h 645.8425 z m 97.9899,403.8371 714.1385,-712.6538 h -443.9239 l -712.6538,712.6538 z"
     id="path8"
     style="stroke-width:14.84695435;fill:#ee0000;fill-opacity:1"
     inkscape:export-filename="C:\Users\suitedoalex\sites\formula-1-logo-5.png"
     inkscape:export-xdpi="23.573858"
     inkscape:export-ydpi="23.573858" />
</svg>
